HIERARCHY
ROOT mixamorig:Hips
{
	OFFSET -0.000008 104.274872 1.554316
	CHANNELS 6 Xposition Yposition Zposition Xrotation Yrotation Zrotation
	JOINT mixamorig:Spine
	{
		OFFSET -0.000005 10.181595 0.131519
		CHANNELS 6 Xposition Yposition Zposition Xrotation Yrotation Zrotation
		JOINT mixamorig:Spine1
		{
			OFFSET -0.000000 9.893959 -1.470707
			CHANNELS 6 Xposition Yposition Zposition Xrotation Yrotation Zrotation
			JOINT mixamorig:Spine2
			{
				OFFSET -0.000000 9.220757 -1.370641
				CHANNELS 6 Xposition Yposition Zposition Xrotation Yrotation Zrotation
				JOINT mixamorig:Neck
				{
					OFFSET 0.000001 16.740417 -2.049036
					CHANNELS 6 Xposition Yposition Zposition Xrotation Yrotation Zrotation
					JOINT mixamorig:Head
					{
						OFFSET 0.000000 9.617874 1.685006
						CHANNELS 6 Xposition Yposition Zposition Xrotation Yrotation Zrotation
						JOINT mixamorig:HeadTop_End
						{
							OFFSET 0.000002 22.037354 7.501101
							CHANNELS 6 Xposition Yposition Zposition Xrotation Yrotation Zrotation
							End Site
							{
								OFFSET 0.000168 2310.654297 -282.823242
							}
						}
					}
				}
				JOINT mixamorig:RightShoulder
				{
					OFFSET -4.569970 11.014908 -2.160885
					CHANNELS 6 Xposition Yposition Zposition Xrotation Yrotation Zrotation
					JOINT mixamorig:RightArm
					{
						OFFSET -10.592851 -0.524811 -2.232101
						CHANNELS 6 Xposition Yposition Zposition Xrotation Yrotation Zrotation
						JOINT mixamorig:RightForeArm
						{
							OFFSET -27.841511 0.000031 -0.000004
							CHANNELS 6 Xposition Yposition Zposition Xrotation Yrotation Zrotation
							JOINT mixamorig:RightHand
							{
								OFFSET -28.328831 -0.000015 0.000015
								CHANNELS 6 Xposition Yposition Zposition Xrotation Yrotation Zrotation
								JOINT mixamorig:RightHandThumb1
								{
									OFFSET -2.464806 -1.573990 2.681852
									CHANNELS 6 Xposition Yposition Zposition Xrotation Yrotation Zrotation
									JOINT mixamorig:RightHandThumb2
									{
										OFFSET -3.215179 -1.872803 1.924282
										CHANNELS 6 Xposition Yposition Zposition Xrotation Yrotation Zrotation
										JOINT mixamorig:RightHandThumb3
										{
											OFFSET -2.654831 -1.527969 1.512609
											CHANNELS 6 Xposition Yposition Zposition Xrotation Yrotation Zrotation
											JOINT mixamorig:RightHandThumb4
											{
												OFFSET -2.018814 -1.152008 1.108052
												CHANNELS 6 Xposition Yposition Zposition Xrotation Yrotation Zrotation
												End Site
												{
													OFFSET -188.809540 -114.533607 132.431396
												}
											}
										}
									}
								}
								JOINT mixamorig:RightHandIndex1
								{
									OFFSET -9.108284 -0.517868 2.259835
									CHANNELS 6 Xposition Yposition Zposition Xrotation Yrotation Zrotation
									JOINT mixamorig:RightHandIndex2
									{
										OFFSET -3.699989 0.000000 0.001215
										CHANNELS 6 Xposition Yposition Zposition Xrotation Yrotation Zrotation
										JOINT mixamorig:RightHandIndex3
										{
											OFFSET -2.850006 0.000031 -0.000522
											CHANNELS 6 Xposition Yposition Zposition Xrotation Yrotation Zrotation
											JOINT mixamorig:RightHandIndex4
											{
												OFFSET -2.772186 -0.000015 -0.000020
												CHANNELS 6 Xposition Yposition Zposition Xrotation Yrotation Zrotation
												End Site
												{
													OFFSET -277.218445 0.000000 -0.050231
												}
											}
										}
									}
								}
								JOINT mixamorig:RightHandMiddle1
								{
									OFFSET -9.532516 -0.000031 -0.000023
									CHANNELS 6 Xposition Yposition Zposition Xrotation Yrotation Zrotation
									JOINT mixamorig:RightHandMiddle2
									{
										OFFSET -3.700005 -0.000015 0.003713
										CHANNELS 6 Xposition Yposition Zposition Xrotation Yrotation Zrotation
										JOINT mixamorig:RightHandMiddle3
										{
											OFFSET -2.949974 0.000015 -0.002054
											CHANNELS 6 Xposition Yposition Zposition Xrotation Yrotation Zrotation
											JOINT mixamorig:RightHandMiddle4
											{
												OFFSET -2.946640 0.000000 -0.000156
												CHANNELS 6 Xposition Yposition Zposition Xrotation Yrotation Zrotation
												End Site
												{
													OFFSET -294.664337 0.000000 -0.113670
												}
											}
										}
									}
								}
								JOINT mixamorig:RightHandRing1
								{
									OFFSET -9.103600 -0.043076 -1.865134
									CHANNELS 6 Xposition Yposition Zposition Xrotation Yrotation Zrotation
									JOINT mixamorig:RightHandRing2
									{
										OFFSET -3.379288 0.000000 -0.001055
										CHANNELS 6 Xposition Yposition Zposition Xrotation Yrotation Zrotation
										JOINT mixamorig:RightHandRing3
										{
											OFFSET -2.889687 -0.000015 0.000379
											CHANNELS 6 Xposition Yposition Zposition Xrotation Yrotation Zrotation
											JOINT mixamorig:RightHandRing4
											{
												OFFSET -2.638809 -0.000015 0.000941
												CHANNELS 6 Xposition Yposition Zposition Xrotation Yrotation Zrotation
												End Site
												{
													OFFSET -263.880371 0.000000 0.516020
												}
											}
										}
									}
								}
								JOINT mixamorig:RightHandPinky1
								{
									OFFSET -8.076683 -0.486710 -3.806280
									CHANNELS 6 Xposition Yposition Zposition Xrotation Yrotation Zrotation
									JOINT mixamorig:RightHandPinky2
									{
										OFFSET -3.600014 -0.000015 -0.003747
										CHANNELS 6 Xposition Yposition Zposition Xrotation Yrotation Zrotation
										JOINT mixamorig:RightHandPinky3
										{
											OFFSET -2.099983 0.000000 -0.005739
											CHANNELS 6 Xposition Yposition Zposition Xrotation Yrotation Zrotation
											JOINT mixamorig:RightHandPinky4
											{
												OFFSET -2.115768 -0.000031 -0.003680
												CHANNELS 6 Xposition Yposition Zposition Xrotation Yrotation Zrotation
												End Site
												{
													OFFSET -211.577087 0.000000 -0.350686
												}
											}
										}
									}
								}
							}
						}
					}
				}
				JOINT mixamorig:LeftShoulder
				{
					OFFSET 4.570447 11.014725 -2.160855
					CHANNELS 6 Xposition Yposition Zposition Xrotation Yrotation Zrotation
					JOINT mixamorig:LeftArm
					{
						OFFSET 10.592371 -0.524597 -2.232119
						CHANNELS 6 Xposition Yposition Zposition Xrotation Yrotation Zrotation
						JOINT mixamorig:LeftForeArm
						{
							OFFSET 27.841532 -0.000031 0.000026
							CHANNELS 6 Xposition Yposition Zposition Xrotation Yrotation Zrotation
							JOINT mixamorig:LeftHand
							{
								OFFSET 28.328846 -0.000061 0.000022
								CHANNELS 6 Xposition Yposition Zposition Xrotation Yrotation Zrotation
								JOINT mixamorig:LeftHandThumb1
								{
									OFFSET 2.466141 -1.576172 2.681732
									CHANNELS 6 Xposition Yposition Zposition Xrotation Yrotation Zrotation
									JOINT mixamorig:LeftHandThumb2
									{
										OFFSET 3.217812 -1.872070 1.916482
										CHANNELS 6 Xposition Yposition Zposition Xrotation Yrotation Zrotation
										JOINT mixamorig:LeftHandThumb3
										{
											OFFSET 2.656029 -1.528778 1.514513
											CHANNELS 6 Xposition Yposition Zposition Xrotation Yrotation Zrotation
											JOINT mixamorig:LeftHandThumb4
											{
												OFFSET 2.020889 -1.154053 1.115139
												CHANNELS 6 Xposition Yposition Zposition Xrotation Yrotation Zrotation
												End Site
												{
													OFFSET 190.885437 -115.081749 130.048782
												}
											}
										}
									}
								}
								JOINT mixamorig:LeftHandIndex1
								{
									OFFSET 9.109314 -0.518021 2.259871
									CHANNELS 6 Xposition Yposition Zposition Xrotation Yrotation Zrotation
									JOINT mixamorig:LeftHandIndex2
									{
										OFFSET 3.699989 0.000000 -0.000322
										CHANNELS 6 Xposition Yposition Zposition Xrotation Yrotation Zrotation
										JOINT mixamorig:LeftHandIndex3
										{
											OFFSET 2.850006 0.000000 0.000352
											CHANNELS 6 Xposition Yposition Zposition Xrotation Yrotation Zrotation
											JOINT mixamorig:LeftHandIndex4
											{
												OFFSET 2.774864 -0.000031 -0.000027
												CHANNELS 6 Xposition Yposition Zposition Xrotation Yrotation Zrotation
												End Site
												{
													OFFSET 277.486267 0.000000 -0.009857
												}
											}
										}
									}
								}
								JOINT mixamorig:LeftHandMiddle1
								{
									OFFSET 9.533394 0.000061 0.000044
									CHANNELS 6 Xposition Yposition Zposition Xrotation Yrotation Zrotation
									JOINT mixamorig:LeftHandMiddle2
									{
										OFFSET 3.699989 -0.000015 -0.000231
										CHANNELS 6 Xposition Yposition Zposition Xrotation Yrotation Zrotation
										JOINT mixamorig:LeftHandMiddle3
										{
											OFFSET 2.949997 -0.000015 -0.000059
											CHANNELS 6 Xposition Yposition Zposition Xrotation Yrotation Zrotation
											JOINT mixamorig:LeftHandMiddle4
											{
												OFFSET 2.952896 0.000031 0.000063
												CHANNELS 6 Xposition Yposition Zposition Xrotation Yrotation Zrotation
												End Site
												{
													OFFSET 295.289337 0.000000 0.022810
												}
											}
										}
									}
								}
								JOINT mixamorig:LeftHandRing1
								{
									OFFSET 9.104523 -0.042999 -1.865074
									CHANNELS 6 Xposition Yposition Zposition Xrotation Yrotation Zrotation
									JOINT mixamorig:LeftHandRing2
									{
										OFFSET 3.150009 -0.000031 0.000043
										CHANNELS 6 Xposition Yposition Zposition Xrotation Yrotation Zrotation
										JOINT mixamorig:LeftHandRing3
										{
											OFFSET 2.949982 -0.000015 0.000040
											CHANNELS 6 Xposition Yposition Zposition Xrotation Yrotation Zrotation
											JOINT mixamorig:LeftHandRing4
											{
												OFFSET 2.644348 0.000000 0.000057
												CHANNELS 6 Xposition Yposition Zposition Xrotation Yrotation Zrotation
												End Site
												{
													OFFSET 264.434631 0.000000 0.012105
												}
											}
										}
									}
								}
								JOINT mixamorig:LeftHandPinky1
								{
									OFFSET 8.077789 -0.486847 -3.806259
									CHANNELS 6 Xposition Yposition Zposition Xrotation Yrotation Zrotation
									JOINT mixamorig:LeftHandPinky2
									{
										OFFSET 3.599953 0.000031 0.014727
										CHANNELS 6 Xposition Yposition Zposition Xrotation Yrotation Zrotation
										JOINT mixamorig:LeftHandPinky3
										{
											OFFSET 2.100021 0.000015 0.007705
											CHANNELS 6 Xposition Yposition Zposition Xrotation Yrotation Zrotation
											JOINT mixamorig:LeftHandPinky4
											{
												OFFSET 2.125504 0.000031 0.007517
												CHANNELS 6 Xposition Yposition Zposition Xrotation Yrotation Zrotation
												End Site
												{
													OFFSET 212.550781 0.000000 0.625752
												}
											}
										}
									}
								}
							}
						}
					}
				}
			}
		}
	}
	JOINT mixamorig:RightUpLeg
	{
		OFFSET -8.207787 -6.751648 -1.599560
		CHANNELS 6 Xposition Yposition Zposition Xrotation Yrotation Zrotation
		JOINT mixamorig:RightLeg
		{
			OFFSET -0.000002 -44.370117 0.345942
			CHANNELS 6 Xposition Yposition Zposition Xrotation Yrotation Zrotation
			JOINT mixamorig:RightFoot
			{
				OFFSET 0.000003 -44.423679 -3.043532
				CHANNELS 6 Xposition Yposition Zposition Xrotation Yrotation Zrotation
				JOINT mixamorig:RightToeBase
				{
					OFFSET -0.000002 -8.728671 10.710558
					CHANNELS 6 Xposition Yposition Zposition Xrotation Yrotation Zrotation
					JOINT mixamorig:RightToe_End
					{
						OFFSET -0.000001 -0.000679 9.278119
						CHANNELS 6 Xposition Yposition Zposition Xrotation Yrotation Zrotation
						End Site
						{
							OFFSET 0.000000 -0.067690 927.812134
						}
					}
				}
			}
		}
	}
	JOINT mixamorig:LeftUpLeg
	{
		OFFSET 8.207793 -6.751686 -1.599556
		CHANNELS 6 Xposition Yposition Zposition Xrotation Yrotation Zrotation
		JOINT mixamorig:LeftLeg
		{
			OFFSET -0.000004 -44.370014 0.346954
			CHANNELS 6 Xposition Yposition Zposition Xrotation Yrotation Zrotation
			JOINT mixamorig:LeftFoot
			{
				OFFSET -0.000001 -44.423672 -3.044401
				CHANNELS 6 Xposition Yposition Zposition Xrotation Yrotation Zrotation
				JOINT mixamorig:LeftToeBase
				{
					OFFSET -0.000002 -8.728669 10.710558
					CHANNELS 6 Xposition Yposition Zposition Xrotation Yrotation Zrotation
					JOINT mixamorig:LeftToe_End
					{
						OFFSET -0.000003 -0.000679 9.278133
						CHANNELS 6 Xposition Yposition Zposition Xrotation Yrotation Zrotation
						End Site
						{
							OFFSET 0.000000 -0.068021 927.813477
						}
					}
				}
			}
		}
	}
}
MOTION
Frames: 3
Frame Time: 0.033333
0.000006 104.270477 1.554256 0.000010 0.000003 -0.000113 -0.000005 10.181587 0.131522 0.000001 -0.000003 0.000084 -0.000000 9.893967 -1.470711 0.000001 0.000000 -0.000000 -0.000000 9.220802 -1.370642 0.000000 -0.000000 -0.000000 0.000001 16.740433 -2.049030 0.000000 -0.000000 -0.000000 0.000000 9.617859 1.685014 0.000000 0.000000 0.000000 0.000002 22.037384 7.501101 0.000000 -0.000000 0.000000 -4.569968 11.014880 -2.160881 0.000008 0.000001 -0.000038 -10.592871 -0.524767 -2.231892 76.302823 30.631520 -24.282516 -27.841537 0.000001 0.000554 -56.420019 110.270214 75.188567 -28.328812 0.000006 0.000029 -0.000321 -0.000043 0.000006 -2.464436 -1.573853 2.682347 -40.039945 -156.378998 7.273783 -3.215273 -1.872540 1.924642 154.602780 33.112525 13.012008 -2.654930 -1.527896 1.513093 146.593249 26.036391 -47.356290 -2.018833 -1.152008 1.108072 -0.000004 0.000002 0.000002 -9.108408 -0.517549 2.260102 95.480895 16.508847 -18.193682 -3.700073 0.000313 0.001489 92.663134 14.023220 -14.658715 -2.850080 0.000361 -0.000281 92.780600 10.560753 -11.081966 -2.772164 -0.000000 -0.000021 -0.000000 0.000000 0.000000 -9.532612 0.000278 0.000243 94.692247 13.608295 -14.909188 -3.700053 0.000353 0.003965 94.584494 8.395609 -8.994941 -2.950037 0.000342 -0.001810 95.379371 9.055499 -9.936435 -2.946627 0.000014 -0.000157 -0.000003 -0.000001 -0.000002 -9.103713 -0.042729 -1.864856 96.712637 13.886657 -15.548284 -3.379292 0.000345 -0.000822 94.176656 3.395130 -3.669038 -2.889729 0.000376 0.000632 97.937775 2.828040 -3.298775 -2.638816 -0.000017 0.000942 -0.000000 0.000002 0.000003 -8.076750 -0.486377 -3.805984 97.009853 13.725683 -15.331951 -3.600006 0.000312 -0.003495 99.136678 1.907359 -1.859982 -2.099996 0.000353 -0.005465 101.387936 0.040595 0.195682 -2.115772 -0.000040 -0.003678 0.000001 -0.000003 -0.000005 4.570446 11.014691 -2.160851 -0.000018 0.000010 -0.000021 10.592379 -0.524492 -2.232334 73.487487 -4.384840 3.274368 27.841820 0.000074 -0.000209 91.617227 -68.920932 70.437794 28.328833 -0.000029 0.000014 0.000020 -0.000089 -0.000000 2.466120 -1.576172 2.681886 -18.993243 154.699304 -47.784680 3.217811 -1.871766 1.916366 158.944881 -29.398746 10.220233 2.656096 -1.528653 1.514438 137.109969 -28.588050 46.050467 2.020884 -1.154070 1.115140 -0.000004 0.000001 -0.000001 9.109385 -0.517870 2.259724 81.784139 -15.020091 13.015116 3.700039 0.000135 -0.000469 79.866406 -13.947772 11.707547 2.850034 0.000173 0.000216 76.532311 -12.649334 9.991994 2.774880 -0.000033 -0.000026 0.000001 -0.000004 -0.000000 9.533461 0.000209 -0.000099 84.112270 -14.625747 13.200457 3.700035 0.000171 -0.000392 83.469351 -13.858868 12.372702 2.950064 0.000141 -0.000194 80.097348 -17.906024 15.089438 2.952853 -0.000015 0.000061 -0.000000 -0.000000 -0.000001 9.104572 -0.042855 -1.865228 80.228952 -13.039513 11.001276 3.150061 0.000185 -0.000099 85.751604 -13.508404 12.551877 2.950042 0.000134 -0.000055 85.931129 -16.257949 15.157689 2.644317 0.000026 0.000062 -0.000000 0.000000 0.000000 8.077821 -0.486755 -3.806381 67.244039 -15.052607 10.435855 3.600003 0.000142 0.014579 66.354659 -13.498313 9.190563 2.100034 0.000148 0.007561 71.428240 -13.790995 10.297394 2.125517 -0.000001 0.007514 0.000001 0.000002 0.000000 -8.207786 -6.751667 -1.599560 -0.077001 -0.000003 0.000080 -0.000002 -44.370110 0.345938 0.153719 -0.000000 -0.000000 0.000000 -44.423679 -3.043532 -0.076700 0.000000 -0.000002 -0.000006 -8.728667 10.710559 -0.000009 -0.000000 -0.000000 -0.000001 -0.000679 9.278123 0.000000 -0.000000 -0.000000 8.207792 -6.751710 -1.599556 -0.074518 -0.000003 0.000081 -0.000002 -44.370014 0.346960 0.148822 0.000002 0.000000 -0.000001 -44.423664 -3.044403 -0.074314 0.000000 -0.000002 -0.000004 -8.728671 10.710558 0.000007 -0.000000 -0.000000 0.000000 -0.000680 9.278137 -0.000000 0.000000 -0.000001 
0.000006 104.270477 1.554256 0.000010 0.000003 -0.000113 -0.000005 10.181587 0.131522 0.000001 -0.000003 0.000084 -0.000000 9.893967 -1.470711 0.000001 0.000000 -0.000000 -0.000000 9.220802 -1.370642 0.000000 -0.000000 -0.000000 0.000001 16.740433 -2.049030 0.000000 -0.000000 -0.000000 0.000000 9.617859 1.685014 0.000000 0.000000 0.000000 0.000002 22.037384 7.501101 0.000000 -0.000000 0.000000 -4.569968 11.014880 -2.160881 0.000008 0.000001 -0.000038 -10.592869 -0.524778 -2.231886 76.435158 33.951306 -27.031831 -27.841515 0.000001 0.000554 -54.179567 107.340207 69.642084 -28.328819 0.000019 0.000032 -0.000322 -0.000044 0.000006 -2.464380 -1.573817 2.682320 -46.156185 -157.793434 -6.267415 -3.215256 -1.872541 1.924616 150.800591 33.378489 20.405031 -2.654950 -1.527881 1.513082 144.572948 26.950595 -43.079045 -2.018827 -1.152001 1.108059 -0.000002 -0.000000 0.000002 -9.108373 -0.517553 2.260106 94.064873 16.202541 -17.427192 -3.700064 0.000307 0.001471 90.831838 14.213575 -14.395160 -2.850094 0.000365 -0.000271 90.831838 11.597332 -11.764811 -2.772171 0.000002 -0.000020 0.000001 0.000001 -0.000000 -9.532570 0.000270 0.000226 91.741257 14.860992 -15.459192 -3.700066 0.000312 0.003956 91.663994 11.382433 -11.618988 -2.950065 0.000339 -0.001816 95.379569 10.972259 -12.038705 -2.946617 0.000003 -0.000152 -0.000001 0.000000 -0.000003 -9.103683 -0.042761 -1.864874 92.329575 15.901114 -16.506291 -3.379308 0.000344 -0.000825 92.296196 6.179349 -6.448816 -2.889724 0.000353 0.000636 100.011660 4.814148 -5.789723 -2.638821 0.000000 0.000939 0.000002 0.000002 0.000001 -8.076743 -0.486389 -3.806004 93.077255 17.039008 -17.806238 -3.600029 0.000309 -0.003495 96.938744 4.348210 -4.530422 -2.100011 0.000347 -0.005440 101.064035 1.684602 -1.795047 -2.115774 -0.000034 -0.003678 0.000001 -0.000001 -0.000004 4.570446 11.014691 -2.160851 -0.000018 0.000010 -0.000021 10.592383 -0.524489 -2.232340 73.315039 -6.104495 4.545128 27.841812 0.000051 -0.000195 93.308628 -72.401699 75.583468 28.328848 -0.000029 0.000024 0.000019 -0.000089 -0.000000 2.466263 -1.576060 2.681829 6.497142 170.522421 -102.328371 3.217852 -1.871800 1.916408 167.665093 -23.496708 32.037153 2.656102 -1.528690 1.514477 141.257123 -26.714453 59.863207 2.020887 -1.154082 1.115137 -0.000000 0.000006 0.000004 9.109390 -0.517876 2.259753 83.604384 -19.255825 17.238964 3.700030 0.000144 -0.000471 80.410246 -11.586613 9.816893 2.850056 0.000177 0.000210 78.438821 -8.649843 7.062980 2.774878 -0.000031 -0.000031 0.000000 -0.000000 0.000001 9.533476 0.000193 -0.000071 83.246469 -17.884717 15.910815 3.700029 0.000177 -0.000378 85.027338 -8.900028 8.159540 2.950056 0.000185 -0.000220 85.069651 -9.822481 9.017736 2.952866 -0.000031 0.000068 -0.000000 0.000004 -0.000000 9.104593 -0.042871 -1.865210 80.343864 -18.121416 15.336881 3.150043 0.000205 -0.000108 87.905682 -11.041112 10.648787 2.950005 0.000195 -0.000084 88.584514 -9.982891 9.742129 2.644323 0.000014 0.000053 -0.000000 -0.000001 0.000001 8.077837 -0.486761 -3.806401 67.633920 -19.036610 13.232563 3.600015 0.000134 0.014567 68.504782 -15.638249 11.048184 2.100024 0.000157 0.007549 70.013441 -12.273050 8.956647 2.125510 -0.000013 0.007516 0.000001 -0.000001 0.000000 -8.207786 -6.751667 -1.599560 -0.077001 -0.000003 0.000080 -0.000002 -44.370110 0.345938 0.153719 -0.000000 -0.000000 0.000000 -44.423679 -3.043532 -0.076700 0.000000 -0.000002 -0.000006 -8.728667 10.710559 -0.000009 -0.000000 -0.000000 -0.000001 -0.000679 9.278123 0.000000 -0.000000 -0.000000 8.207792 -6.751710 -1.599556 -0.074518 -0.000003 0.000081 -0.000002 -44.370014 0.346960 0.148822 0.000002 0.000000 -0.000001 -44.423664 -3.044403 -0.074314 0.000000 -0.000002 -0.000004 -8.728671 10.710558 0.000007 -0.000000 -0.000000 0.000000 -0.000680 9.278137 -0.000000 0.000000 -0.000001 
0.000006 104.270477 1.554256 0.000010 0.000003 -0.000113 -0.000005 10.181587 0.131522 0.000001 -0.000003 0.000084 -0.000000 9.893967 -1.470711 0.000001 0.000000 -0.000000 -0.000000 9.220802 -1.370642 0.000000 -0.000000 -0.000000 0.000001 16.740433 -2.049030 0.000000 -0.000000 -0.000000 0.000000 9.617859 1.685014 0.000000 0.000000 0.000000 0.000002 22.037384 7.501101 0.000000 -0.000000 0.000000 -4.569968 11.014880 -2.160881 0.000008 0.000001 -0.000038 -10.592864 -0.524783 -2.231864 76.249602 36.598670 -29.098805 -27.841537 -0.000005 0.000555 -53.027400 105.343435 66.385641 -28.328842 0.000008 0.000035 -0.000318 -0.000045 0.000007 -2.464377 -1.573789 2.682315 -46.820827 -158.582690 -7.732398 -3.215266 -1.872556 1.924628 151.259170 33.240137 18.614723 -2.654937 -1.527880 1.513083 145.068970 26.880310 -42.433360 -2.018838 -1.152010 1.108061 -0.000004 -0.000002 0.000004 -9.108364 -0.517566 2.260126 94.801660 16.753305 -18.246885 -3.700065 0.000297 0.001499 91.436904 14.966903 -15.317997 -2.850089 0.000361 -0.000279 91.371716 12.199949 -12.492306 -2.772156 -0.000015 -0.000018 -0.000000 -0.000001 0.000000 -9.532572 0.000269 0.000236 91.897368 15.661072 -16.328062 -3.700077 0.000322 0.003970 92.327478 11.980265 -12.374863 -2.950046 0.000345 -0.001796 95.857074 11.334021 -12.539063 -2.946620 0.000001 -0.000157 0.000001 0.000003 0.000001 -9.103680 -0.042751 -1.864885 92.400951 16.570276 -17.222894 -3.379319 0.000340 -0.000824 93.120552 6.781571 -7.178032 -2.889754 0.000353 0.000650 100.425624 5.265158 -6.373781 -2.638823 -0.000028 0.000942 -0.000001 0.000001 0.000002 -8.076742 -0.486375 -3.805993 93.546599 17.635321 -18.582245 -3.600041 0.000299 -0.003497 98.059892 4.970441 -5.333176 -2.100007 0.000340 -0.005451 101.330494 2.105137 -2.314897 -2.115765 -0.000035 -0.003676 0.000000 -0.000002 -0.000001 4.570446 11.014691 -2.160851 -0.000018 0.000010 -0.000021 10.592400 -0.524482 -2.232356 72.207189 -13.184587 9.635615 27.841803 0.000066 -0.000192 94.994312 -74.254238 79.119006 28.328823 -0.000029 0.000026 0.000023 -0.000089 0.000000 2.466247 -1.575989 2.681808 11.393588 176.661409 -114.964829 3.217892 -1.871840 1.916431 168.311243 -19.624076 44.182161 2.656122 -1.528690 1.514510 141.789741 -26.361154 62.103317 2.020903 -1.154068 1.115149 0.000005 0.000002 0.000001 9.109365 -0.517868 2.259751 86.458181 -20.821348 19.585240 3.700046 0.000150 -0.000458 82.730591 -12.486332 11.019385 2.850063 0.000194 0.000211 80.833069 -8.708455 7.418674 2.774865 -0.000030 -0.000028 0.000001 0.000003 -0.000000 9.533450 0.000192 -0.000077 84.796566 -19.853418 18.149225 3.700034 0.000185 -0.000380 86.875792 -9.397948 8.898593 2.950036 0.000185 -0.000217 87.458755 -9.172416 8.778649 2.952859 -0.000045 0.000064 0.000002 -0.000000 -0.000000 9.104586 -0.042872 -1.865215 81.936732 -19.566962 17.032670 3.150039 0.000198 -0.000098 89.124236 -11.536115 11.364053 2.950007 0.000183 -0.000096 89.644792 -9.423199 9.366915 2.644318 0.000032 0.000058 0.000001 -0.000003 0.000000 8.077824 -0.486748 -3.806373 69.613213 -20.147176 14.515276 3.599994 0.000142 0.014563 71.081198 -16.166744 11.968932 2.100022 0.000159 0.007548 73.065942 -12.047413 9.301697 2.125505 -0.000000 0.007518 -0.000002 -0.000000 -0.000000 -8.207786 -6.751667 -1.599560 -0.077001 -0.000003 0.000080 -0.000002 -44.370110 0.345938 0.153719 -0.000000 -0.000000 0.000000 -44.423679 -3.043532 -0.076700 0.000000 -0.000002 -0.000006 -8.728667 10.710559 -0.000009 -0.000000 -0.000000 -0.000001 -0.000679 9.278123 0.000000 -0.000000 -0.000000 8.207792 -6.751710 -1.599556 -0.074518 -0.000003 0.000081 -0.000002 -44.370014 0.346960 0.148822 0.000002 0.000000 -0.000001 -44.423664 -3.044403 -0.074314 0.000000 -0.000002 -0.000004 -8.728671 10.710558 0.000007 -0.000000 -0.000000 0.000000 -0.000680 9.278137 -0.000000 0.000000 -0.000001 
